# xmcd CD database file
#
# Track frame offsets:
#	150
#	14154
#	125827
#	186327
#	215810
#
# Disc length: 3760 seconds
#
# Revision: 0
# Processed by: cddbd v1.5.2PL0 Copyright (c) Steve Scherf et al.
# Submitted via: CDex 1.70beta2
#
DISCID=520eae05
DTITLE=Leonard King - James Carter - Extending the Language
DYEAR=2005
DGENRE=Jazz
TTITLE0=Walking the dog
TTITLE1=Open Hit Baby
TTITLE2=Groove Re mi
TTITLE3=Its a long way down
TTITLE4=Walking the dog Groupstyle
EXTD=YEAR: 2005
EXTT0=
EXTT1=
EXTT2=
EXTT3=
EXTT4=
PLAYORDER=
